<?xml version="1.0" encoding="utf-8"?>
<!-- Generator: Adobe Illustrator 12.0.0, SVG Export Plug-In . SVG Version: 6.00 Build 51448)  -->
<!DOCTYPE svg PUBLIC "-//W3C//DTD SVG 1.1//EN" "http://www.w3.org/Graphics/SVG/1.1/DTD/svg11.dtd" [
	<!ENTITY ns_svg "http://www.w3.org/2000/svg">
	<!ENTITY ns_xlink "http://www.w3.org/1999/xlink">
]>
<svg  version="1.1" id="Ebene_1" xmlns="&ns_svg;" xmlns:xlink="&ns_xlink;" width="24" height="24" viewBox="0 0 24 24"
	 overflow="visible" enable-background="new 0 0 24 24" xml:space="preserve">
<g>
	<path fill="#696969" d="M0,23.999h7V0H0v2l0,0l0,0V23.999L0,23.999z M5,21.999H2V2h3V21.999L5,21.999z"/>
</g>
<g>
	<path fill="#F7F7F7" d="M5,21.999H2V2h3V21.999L5,21.999z"/>
</g>
<g>
	<path fill="#696969" d="M23.046,0c-0.301,0-0.651,0.14-1.026,0.432L9.979,9.807c-0.562,0.438-0.843,1.031-0.841,1.626
		c0.003,0.558,0.256,1.12,0.762,1.557l12.2,10.525C22.479,23.844,22.833,24,23.13,24C23.65,24,24,23.518,24,22.634V1.415
		C24,0.505,23.616,0,23.046,0L23.046,0z M11.175,11.43c0.008-0.006,0.017-0.014,0.027-0.022L22,2.999v17.772l-10.8-9.319
		C11.19,11.445,11.182,11.437,11.175,11.43L11.175,11.43z"/>
</g>
<g>
	<path fill="#F7F7F7" d="M11.175,11.43c0.008-0.006,0.017-0.014,0.027-0.022L22,2.999v17.772l-10.8-9.319
		C11.19,11.445,11.182,11.437,11.175,11.43L11.175,11.43z"/>
</g>
</svg>
