<?xml version="1.0" encoding="utf-8"?>
<!-- Generator: Adobe Illustrator 12.0.0, SVG Export Plug-In . SVG Version: 6.00 Build 51448)  -->
<!DOCTYPE svg PUBLIC "-//W3C//DTD SVG 1.1//EN" "http://www.w3.org/Graphics/SVG/1.1/DTD/svg11.dtd" [
	<!ENTITY ns_svg "http://www.w3.org/2000/svg">
	<!ENTITY ns_xlink "http://www.w3.org/1999/xlink">
]>
<svg  version="1.1" id="Ebene_1" xmlns="&ns_svg;" xmlns:xlink="&ns_xlink;" width="24" height="24" viewBox="0 0 24 24"
	 overflow="visible" enable-background="new 0 0 24 24" xml:space="preserve">
<path fill="#696969" d="M8,7v4.998h2.003V24H15V7H8z M13,22h-1V10h-1.995l0.005-1H13V22z"/>
<polygon fill="#F7F7F7" points="12,22 13,22 13,9 10.01,9 10.005,10 12,10 "/>
<path fill="#F7F7F7" d="M12,3.835c0.431,0,0.77-0.352,0.77-0.801c0-0.447-0.332-0.784-0.77-0.784c-0.45,0-0.816,0.352-0.816,0.784
	C11.184,3.476,11.55,3.835,12,3.835z"/>
<path fill="#696969" d="M12,0.042c-1.663,0-3.022,1.332-3.022,2.991c0,1.659,1.359,3.009,3.022,3.009s2.979-1.35,2.979-3.009
	C14.979,1.374,13.663,0.042,12,0.042z M12,3.835c-0.45,0-0.816-0.359-0.816-0.801c0-0.432,0.366-0.784,0.816-0.784
	c0.438,0,0.77,0.337,0.77,0.784C12.77,3.483,12.431,3.835,12,3.835z"/>
</svg>
