<?xml version="1.0" encoding="utf-8"?>
<!-- Generator: Adobe Illustrator 12.0.0, SVG Export Plug-In . SVG Version: 6.00 Build 51448)  -->
<!DOCTYPE svg PUBLIC "-//W3C//DTD SVG 1.1//EN" "http://www.w3.org/Graphics/SVG/1.1/DTD/svg11.dtd" [
	<!ENTITY ns_svg "http://www.w3.org/2000/svg">
	<!ENTITY ns_xlink "http://www.w3.org/1999/xlink">
]>
<svg  version="1.1" id="Ebene_1" xmlns="&ns_svg;" xmlns:xlink="&ns_xlink;" width="19" height="19" viewBox="0 0 19 19"
	 overflow="visible" enable-background="new 0 0 19 19" xml:space="preserve">
<path fill="#696969" d="M18.521,8.463l-6.94-6.177c-0.498-0.439-0.911-0.324-1.065-0.254C10.359,2.103,10,2.336,10,3v4H0v5h10v4
	c0,0.664,0.359,0.896,0.516,0.968c0.154,0.069,0.568,0.185,1.065-0.255l6.94-6.176C18.826,10.27,19.001,9.89,19,9.5
	C19,9.109,18.826,8.731,18.521,8.463z M17.859,9.788c0,0-6.084,5.419-6.859,6.104V12v-1h-1H2H1V8h1h8h1V7V3.108l6.859,6.105
	C17.951,9.293,18,9.395,18,9.5C18.001,9.605,17.951,9.708,17.859,9.788z"/>
<path fill="#F7F7F7" d="M17.859,9.788c0,0-6.084,5.419-6.859,6.104V12v-1h-1H2H1V8h1h8h1V7V3.108l6.859,6.105
	C17.951,9.293,18,9.395,18,9.5C18.001,9.605,17.951,9.708,17.859,9.788z"/>
</svg>
