<?xml version="1.0" encoding="utf-8"?>
<!-- Generator: Adobe Illustrator 12.0.0, SVG Export Plug-In . SVG Version: 6.00 Build 51448)  -->
<!DOCTYPE svg PUBLIC "-//W3C//DTD SVG 1.1//EN" "http://www.w3.org/Graphics/SVG/1.1/DTD/svg11.dtd" [
	<!ENTITY ns_svg "http://www.w3.org/2000/svg">
	<!ENTITY ns_xlink "http://www.w3.org/1999/xlink">
]>
<svg  version="1.1" id="Ebene_1" xmlns="&ns_svg;" xmlns:xlink="&ns_xlink;" width="24" height="24" viewBox="0 0 24 24"
	 overflow="visible" enable-background="new 0 0 24 24" xml:space="preserve">
<g>
	<path fill="#696969" d="M24,0.001h-7V24h7v-2l0,0l0,0V0.001L24,0.001z M19,2.001h3V22h-3V2.001L19,2.001z"/>
</g>
<g>
	<path fill="#F7F7F7" d="M19,2.001h3V22h-3V2.001L19,2.001z"/>
</g>
<g>
	<path fill="#696969" d="M0.954,24c0.301,0,0.651-0.141,1.026-0.432l12.04-9.375c0.562-0.438,0.844-1.031,0.842-1.627
		c-0.004-0.558-0.256-1.12-0.762-1.556L1.9,0.484C1.521,0.156,1.167,0,0.87,0C0.349,0,0,0.483,0,1.366v21.219
		C0,23.495,0.384,24,0.954,24L0.954,24z M12.825,12.57c-0.009,0.006-0.017,0.014-0.027,0.021L2,21.001V3.228l10.8,9.32
		C12.811,12.555,12.818,12.562,12.825,12.57L12.825,12.57z"/>
</g>
<g>
	<path fill="#F7F7F7" d="M12.825,12.57c-0.009,0.006-0.017,0.014-0.027,0.021L2,21.001V3.228l10.8,9.32
		C12.811,12.555,12.818,12.562,12.825,12.57L12.825,12.57z"/>
</g>
</svg>
