<?xml version="1.0" encoding="utf-8"?>
<!-- Generator: Adobe Illustrator 12.0.0, SVG Export Plug-In . SVG Version: 6.00 Build 51448)  -->
<!DOCTYPE svg PUBLIC "-//W3C//DTD SVG 1.1//EN" "http://www.w3.org/Graphics/SVG/1.1/DTD/svg11.dtd" [
	<!ENTITY ns_svg "http://www.w3.org/2000/svg">
	<!ENTITY ns_xlink "http://www.w3.org/1999/xlink">
]>
<svg  version="1.1" id="Ebene_1" xmlns="&ns_svg;" xmlns:xlink="&ns_xlink;" width="16" height="16" viewBox="0 0 16 16"
	 overflow="visible" enable-background="new 0 0 16 16" xml:space="preserve">
<path fill="#696969" d="M15.292,11.945L11.348,8l3.945-3.946c0.448-0.448,0.695-1.045,0.695-1.679c0-0.635-0.247-1.231-0.695-1.68
	C14.846,0.247,14.248,0,13.613,0s-1.23,0.247-1.68,0.696L7.988,4.641L4.043,0.696C3.595,0.247,2.999,0,2.363,0
	c-0.634,0-1.231,0.247-1.68,0.696C0.235,1.144,0,1.74,0,2.375c0,0.634,0.235,1.23,0.684,1.679L4.63,8l-3.946,3.945
	c-0.83,0.83-0.926,2.433,0,3.357c0.926,0.926,2.434,0.926,3.36,0l3.945-3.945l3.947,3.947C12.382,15.753,12.979,16,13.613,16
	c0.634,0,1.229-0.247,1.68-0.695C16.219,14.379,16.218,12.871,15.292,11.945z M13.613,15c-0.368,0-0.713-0.143-0.973-0.402
	L7.988,9.945l-4.651,4.65c-0.537,0.536-1.41,0.536-1.946,0c-0.26-0.26-0.402-0.604-0.402-0.972s0.143-0.713,0.402-0.974L6.044,8
	L1.391,3.347c-0.26-0.26-0.402-0.605-0.403-0.972c0-0.367,0.143-0.712,0.402-0.972c0.536-0.536,1.409-0.536,1.945,0l4.652,4.653
	l4.654-4.653C12.9,1.143,13.246,1,13.613,1s0.713,0.144,0.973,0.403c0.26,0.26,0.402,0.605,0.402,0.972s-0.143,0.712-0.402,0.972
	L9.934,8l4.651,4.652c0.537,0.535,0.536,1.408,0.001,1.945C14.325,14.857,13.98,15,13.613,15z"/>
<path fill="#F7F7F7" d="M13.613,15c-0.368,0-0.713-0.143-0.973-0.402L7.988,9.945l-4.651,4.65c-0.537,0.536-1.41,0.536-1.946,0
	c-0.26-0.26-0.402-0.604-0.402-0.972s0.143-0.713,0.402-0.974L6.044,8L1.391,3.347c-0.26-0.26-0.402-0.605-0.403-0.972
	c0-0.367,0.143-0.712,0.402-0.972c0.536-0.536,1.409-0.536,1.945,0l4.652,4.653l4.654-4.653C12.9,1.143,13.246,1,13.613,1
	s0.713,0.144,0.973,0.403c0.26,0.26,0.402,0.605,0.402,0.972s-0.143,0.712-0.402,0.972L9.934,8l4.651,4.652
	c0.537,0.535,0.536,1.408,0.001,1.945C14.325,14.857,13.98,15,13.613,15z"/>
</svg>
