<?xml version="1.0" encoding="utf-8"?>
<!-- Generator: Adobe Illustrator 12.0.0, SVG Export Plug-In . SVG Version: 6.00 Build 51448)  -->
<!DOCTYPE svg PUBLIC "-//W3C//DTD SVG 1.1//EN" "http://www.w3.org/Graphics/SVG/1.1/DTD/svg11.dtd" [
	<!ENTITY ns_svg "http://www.w3.org/2000/svg">
	<!ENTITY ns_xlink "http://www.w3.org/1999/xlink">
]>
<svg  version="1.1" id="Ebene_1" xmlns="&ns_svg;" xmlns:xlink="&ns_xlink;" width="16.012" height="16" viewBox="0 0 16.012 16"
	 overflow="visible" enable-background="new 0 0 16.012 16" xml:space="preserve">
<g>
	<path fill="#696969" d="M14.174,2.027c-0.471,0-0.939,0.179-1.297,0.537l-7.28,7.252l-2.46-2.373
		c-0.359-0.358-0.829-0.537-1.3-0.537c-0.47,0-0.94,0.179-1.298,0.536C0.232,7.748,0,8.27,0,8.738c0,0.469,0.179,0.938,0.539,1.297
		L5.597,15l1.298-1.292l8.578-8.553c0.359-0.357,0.539-0.827,0.539-1.295c0-0.469-0.18-0.938-0.539-1.295
		C15.113,2.206,14.643,2.027,14.174,2.027L14.174,2.027z M5.597,11.229l7.985-7.957c0.16-0.158,0.367-0.245,0.592-0.245
		c0.223,0,0.434,0.087,0.592,0.245v0.001h0.002c0.158,0.157,0.244,0.365,0.244,0.586c0,0.222-0.086,0.43-0.244,0.587l-9.17,9.143
		L1.244,9.327C1.087,9.17,1,8.96,1,8.736c0-0.219,0.087-0.428,0.244-0.584c0.157-0.157,0.367-0.244,0.592-0.244
		c0.224,0,0.435,0.087,0.594,0.244L5.597,11.229L5.597,11.229z"/>
</g>
<g>
	<path fill="#F7F7F7" d="M5.597,11.229l7.985-7.957c0.16-0.158,0.367-0.245,0.592-0.245c0.223,0,0.434,0.087,0.592,0.245v0.001
		h0.002c0.158,0.157,0.244,0.365,0.244,0.586c0,0.222-0.086,0.43-0.244,0.587l-9.17,9.143L1.244,9.327C1.087,9.17,1,8.96,1,8.736
		c0-0.219,0.087-0.428,0.244-0.584c0.157-0.157,0.367-0.244,0.592-0.244c0.224,0,0.435,0.087,0.594,0.244L5.597,11.229L5.597,11.229
		z"/>
</g>
</svg>
