<?xml version="1.0" encoding="utf-8"?>
<!-- Generator: Adobe Illustrator 12.0.0, SVG Export Plug-In . SVG Version: 6.00 Build 51448)  -->
<!DOCTYPE svg PUBLIC "-//W3C//DTD SVG 1.1//EN" "http://www.w3.org/Graphics/SVG/1.1/DTD/svg11.dtd" [
	<!ENTITY ns_svg "http://www.w3.org/2000/svg">
	<!ENTITY ns_xlink "http://www.w3.org/1999/xlink">
]>
<svg  version="1.1" id="Ebene_1" xmlns="&ns_svg;" xmlns:xlink="&ns_xlink;" width="24" height="24" viewBox="0 0 24 24"
	 overflow="visible" enable-background="new 0 0 24 24" xml:space="preserve">
<g>
	<path fill="#696969" d="M18.046,0c-0.301,0-0.651,0.14-1.026,0.432L4.979,9.807c-0.562,0.438-0.843,1.03-0.841,1.625
		C4.14,11.99,4.393,12.553,4.9,12.988l12.2,10.527C17.479,23.844,17.833,24,18.13,24C18.65,24,19,23.518,19,22.634V1.415
		C19,0.504,18.616,0,18.046,0L18.046,0z M6.174,11.43c0.008-0.006,0.017-0.014,0.027-0.022L17,2.999v17.774l-10.8-9.32
		C6.19,11.445,6.182,11.437,6.174,11.43L6.174,11.43z"/>
</g>
<g>
	<path fill="#F7F7F7" d="M6.174,11.43c0.008-0.006,0.017-0.014,0.027-0.022L17,2.999v17.774l-10.8-9.32
		C6.19,11.445,6.182,11.437,6.174,11.43L6.174,11.43z"/>
</g>
</svg>
