<?xml version="1.0" encoding="utf-8"?>
<!-- Generator: Adobe Illustrator 12.0.0, SVG Export Plug-In . SVG Version: 6.00 Build 51448)  -->
<!DOCTYPE svg PUBLIC "-//W3C//DTD SVG 1.1//EN" "http://www.w3.org/Graphics/SVG/1.1/DTD/svg11.dtd" [
	<!ENTITY ns_svg "http://www.w3.org/2000/svg">
	<!ENTITY ns_xlink "http://www.w3.org/1999/xlink">
]>
<svg  version="1.1" id="Ebene_1" xmlns="&ns_svg;" xmlns:xlink="&ns_xlink;" width="19" height="19" viewBox="0 0 19 19"
	 overflow="visible" enable-background="new 0 0 19 19" xml:space="preserve">
<g>
	<path fill="#696969" d="M17,0H2C0.899,0,0,0.9,0,2v15c0,1.1,0.899,2,2,2h15c1.1,0,2-0.9,2-2V2C19,0.9,18.1,0,17,0L17,0z M2,18
		c-0.551,0-1-0.449-1-1V2c0-0.551,0.449-1,1-1h15c0.551,0,1,0.449,1,1v15c0,0.551-0.449,1-1,1H2L2,18z"/>
</g>
<g>
	<path fill="#F7F7F7" d="M2,18c-0.551,0-1-0.449-1-1V2c0-0.551,0.449-1,1-1h15c0.551,0,1,0.449,1,1v15c0,0.551-0.449,1-1,1H2L2,18z"
		/>
</g>
<path fill="#696969" d="M13.41,8.891l-5.149-4.69c-0.292-0.267-0.54-0.205-0.635-0.167c-0.092,0.038-0.31,0.168-0.31,0.555v9.818
	c0,0.387,0.218,0.521,0.311,0.555c0.094,0.042,0.342,0.101,0.634-0.164l5.149-4.692c0.18-0.161,0.275-0.376,0.275-0.607
	S13.59,9.052,13.41,8.891z"/>
</svg>
