<?xml version="1.0" encoding="utf-8"?>
<!-- Generator: Adobe Illustrator 12.0.0, SVG Export Plug-In . SVG Version: 6.00 Build 51448)  -->
<!DOCTYPE svg PUBLIC "-//W3C//DTD SVG 1.1//EN" "http://www.w3.org/Graphics/SVG/1.1/DTD/svg11.dtd" [
	<!ENTITY ns_svg "http://www.w3.org/2000/svg">
	<!ENTITY ns_xlink "http://www.w3.org/1999/xlink">
]>
<svg  version="1.1" id="Ebene_1" xmlns="&ns_svg;" xmlns:xlink="&ns_xlink;" width="24" height="24.002" viewBox="0 0 24 24.002"
	 overflow="visible" enable-background="new 0 0 24 24.002" xml:space="preserve">
<path fill="#696969" d="M3,0.001c-0.768,0-1.536,0.293-2.121,0.879C0.293,1.465,0.001,2.233,0.001,3.001s0.292,1.536,0.878,2.122
	L7.756,12l0,0l0,0l-6.877,6.877c-0.585,0.586-0.878,1.354-0.878,2.122s0.292,1.536,0.878,2.123c0.585,0.587,1.353,0.88,2.121,0.88
	s1.536-0.293,2.122-0.88L12,16.244l6.876,6.878c0.586,0.587,1.353,0.88,2.121,0.88s1.536-0.293,2.122-0.88s0.879-1.355,0.879-2.123
	c0-0.77-0.293-1.536-0.879-2.122l-6.876-6.876l0,0l0,0l6.878-6.878c0.585-0.586,0.878-1.354,0.878-2.122s-0.293-1.536-0.878-2.122
	c-0.587-0.585-1.355-0.878-2.124-0.878s-1.535,0.293-2.121,0.878l-6.877,6.877L5.122,0.88C4.536,0.294,3.768,0.001,3,0.001L3,0.001z
	 M3,22.002c-0.154,0-0.451-0.038-0.704-0.292c-0.392-0.393-0.392-1.029-0.002-1.419l6.876-6.877L10.584,12L9.17,10.586L2.293,3.709
	c-0.389-0.39-0.39-1.025,0-1.415C2.548,2.039,2.845,2.001,3,2.001s0.453,0.038,0.708,0.293l6.877,6.877l1.414,1.414l1.414-1.414
	l6.877-6.877c0.188-0.188,0.44-0.292,0.707-0.292c0.155,0,0.455,0.038,0.712,0.295c0.387,0.387,0.387,1.022-0.003,1.412
	l-6.877,6.878l-1.414,1.414l1.414,1.414l6.876,6.876c0.391,0.39,0.389,1.026-0.001,1.418c-0.255,0.255-0.552,0.293-0.707,0.293
	c-0.267,0-0.517-0.104-0.706-0.293l-6.877-6.879L12,13.415l-1.414,1.415l-6.878,6.878C3.452,21.964,3.155,22.002,3,22.002L3,22.002z
	"/>
<path fill="#F7F7F7" d="M3,22.002c0.155,0,0.452-0.038,0.708-0.294l6.878-6.878L12,13.415l1.414,1.415l6.877,6.879
	c0.189,0.188,0.439,0.293,0.706,0.293c0.155,0,0.452-0.038,0.707-0.293c0.39-0.392,0.392-1.028,0.001-1.418l-6.876-6.876
	l-1.414-1.414l1.414-1.414l6.877-6.878c0.39-0.39,0.39-1.025,0.003-1.412c-0.257-0.257-0.557-0.295-0.712-0.295
	c-0.267,0-0.519,0.104-0.707,0.292l-6.877,6.877l-1.414,1.414l-1.414-1.414L3.708,2.294C3.453,2.039,3.155,2.001,3,2.001
	S2.548,2.039,2.293,2.294c-0.39,0.39-0.389,1.025,0,1.415l6.877,6.877L10.584,12L9.17,13.414l-6.876,6.877
	c-0.39,0.39-0.39,1.026,0.002,1.419C2.549,21.964,2.846,22.002,3,22.002z"/>
</svg>
