<?xml version="1.0" encoding="utf-8"?>
<!-- Generator: Adobe Illustrator 12.0.0, SVG Export Plug-In . SVG Version: 6.00 Build 51448)  -->
<!DOCTYPE svg PUBLIC "-//W3C//DTD SVG 1.1//EN" "http://www.w3.org/Graphics/SVG/1.1/DTD/svg11.dtd" [
	<!ENTITY ns_svg "http://www.w3.org/2000/svg">
	<!ENTITY ns_xlink "http://www.w3.org/1999/xlink">
]>
<svg  version="1.1" id="Ebene_1" xmlns="&ns_svg;" xmlns:xlink="&ns_xlink;" width="19" height="19" viewBox="0 0 19 19"
	 overflow="visible" enable-background="new 0 0 19 19" xml:space="preserve">
<g>
	<path fill="#696969" d="M16,2l-1-1l-1-1h-1H4C2.898,0,2,0.9,2,2v15c0,1.1,0.898,2,2,2h11c1.1,0,2-0.9,2-2V4V3L16,2z M16,17
		c0,0.551-0.449,1-1,1H4c-0.551,0-1-0.449-1-1V2c0-0.551,0.449-1,1-1h9v1c0,1.1,0.9,2,2,2h1V17z"/>
	<path fill="#F7F7F7" d="M16,17c0,0.551-0.449,1-1,1H4c-0.551,0-1-0.449-1-1V2c0-0.551,0.449-1,1-1h9v1c0,1.1,0.9,2,2,2h1V17z"/>
	<path fill="#696969" d="M16.443,17.759l-0.041-0.055l-2.934-4l-0.17-0.231C14.346,12.471,15,11.062,15,9.5C15,6.462,12.539,4,9.5,4
		S4,6.462,4,9.5C4,12.54,6.461,15,9.5,15c1.115,0,2.15-0.334,3.018-0.902l0.146,0.198l2.934,4l0.297,0.403l0.149-0.11
		C16.107,18.277,16.252,17.998,16.443,17.759z M9.5,14C7.02,14,5,11.98,5,9.5C5,7.019,7.02,5,9.5,5C11.98,5,14,7.019,14,9.5
		C14,11.98,11.98,14,9.5,14z"/>
	<rect x="7" y="9" fill="#696969" width="5" height="1"/>
</g>
</svg>
